<svg xmlns="http://www.w3.org/2000/svg" viewBox="0 0 520 104" preserveAspectRatio="xMinYMid slice"><defs>  <linearGradient id="fade" x1="0" y1="0" x2="1" y2="0">    <stop offset="0.40" stop-color="#15294A" stop-opacity="0"/>    <stop offset="0.90" stop-color="#15294A" stop-opacity="1"/>  </linearGradient></defs><rect x="0" y="0" width="26" height="26" fill="#0A1830"/><rect x="26" y="0" width="26" height="26" fill="#0A1830"/><rect x="91" y="0" width="13" height="13" fill="#0A1830"/><rect x="104" y="0" width="26" height="26" fill="#0A1830"/><rect x="143" y="0" width="26" height="26" fill="#0A1830"/><rect x="195" y="0" width="13" height="13" fill="#0A1830"/><rect x="221" y="0" width="13" height="13" fill="#0A1830"/><rect x="260" y="0" width="13" height="13" fill="#0A1830"/><rect x="286" y="0" width="13" height="13" fill="#0A1830"/><rect x="0" y="13" width="26" height="26" fill="#0A1830"/><rect x="26" y="13" width="13" height="13" fill="#0A1830"/><rect x="39" y="13" width="13" height="13" fill="#0A1830"/><rect x="52" y="13" width="13" height="13" fill="#0A1830"/><rect x="104" y="13" width="13" height="13" fill="#0A1830"/><rect x="117" y="13" width="13" height="13" fill="#0A1830"/><rect x="208" y="13" width="26" height="26" fill="#0A1830"/><rect x="247" y="13" width="26" height="26" fill="#0A1830"/><rect x="0" y="26" width="13" height="13" fill="#0A1830"/><rect x="26" y="26" width="26" height="26" fill="#0A1830"/><rect x="52" y="26" width="13" height="13" fill="#0A1830"/><rect x="65" y="26" width="13" height="13" fill="#0A1830"/><rect x="91" y="26" width="13" height="13" fill="#0A1830"/><rect x="130" y="26" width="13" height="13" fill="#0A1830"/><rect x="143" y="26" width="13" height="13" fill="#0A1830"/><rect x="195" y="26" width="13" height="13" fill="#0A1830"/><rect x="208" y="26" width="13" height="13" fill="#0A1830"/><rect x="273" y="26" width="13" height="13" fill="#0A1830"/><rect x="325" y="26" width="13" height="13" fill="#0A1830"/><rect x="338" y="26" width="13" height="13" fill="#0A1830"/><rect x="0" y="39" width="13" height="13" fill="#0A1830"/><rect x="26" y="39" width="26" height="26" fill="#0A1830"/><rect x="52" y="39" width="13" height="13" fill="#0A1830"/><rect x="65" y="39" width="13" height="13" fill="#0A1830"/><rect x="104" y="39" width="13" height="13" fill="#0A1830"/><rect x="117" y="39" width="26" height="26" fill="#0A1830"/><rect x="143" y="39" width="13" height="13" fill="#0A1830"/><rect x="156" y="39" width="26" height="26" fill="#0A1830"/><rect x="182" y="39" width="13" height="13" fill="#0A1830"/><rect x="195" y="39" width="13" height="13" fill="#0A1830"/><rect x="221" y="39" width="26" height="26" fill="#0A1830"/><rect x="260" y="39" width="13" height="13" fill="#0A1830"/><rect x="0" y="52" width="13" height="13" fill="#0A1830"/><rect x="13" y="52" width="26" height="26" fill="#0A1830"/><rect x="52" y="52" width="13" height="13" fill="#0A1830"/><rect x="65" y="52" width="26" height="26" fill="#0A1830"/><rect x="156" y="52" width="13" height="13" fill="#0A1830"/><rect x="169" y="52" width="13" height="13" fill="#0A1830"/><rect x="182" y="52" width="13" height="13" fill="#0A1830"/><rect x="208" y="52" width="13" height="13" fill="#0A1830"/><rect x="299" y="52" width="13" height="13" fill="#0A1830"/><rect x="364" y="52" width="13" height="13" fill="#0A1830"/><rect x="0" y="65" width="13" height="13" fill="#0A1830"/><rect x="13" y="65" width="13" height="13" fill="#0A1830"/><rect x="26" y="65" width="13" height="13" fill="#0A1830"/><rect x="52" y="65" width="13" height="13" fill="#0A1830"/><rect x="65" y="65" width="13" height="13" fill="#0A1830"/><rect x="91" y="65" width="13" height="13" fill="#0A1830"/><rect x="117" y="65" width="13" height="13" fill="#0A1830"/><rect x="156" y="65" width="26" height="26" fill="#0A1830"/><rect x="182" y="65" width="13" height="13" fill="#0A1830"/><rect x="234" y="65" width="13" height="13" fill="#0A1830"/><rect x="299" y="65" width="13" height="13" fill="#0A1830"/><rect x="0" y="78" width="13" height="13" fill="#0A1830"/><rect x="13" y="78" width="26" height="26" fill="#0A1830"/><rect x="65" y="78" width="13" height="13" fill="#0A1830"/><rect x="78" y="78" width="13" height="13" fill="#0A1830"/><rect x="91" y="78" width="26" height="26" fill="#0A1830"/><rect x="182" y="78" width="26" height="26" fill="#0A1830"/><rect x="208" y="78" width="13" height="13" fill="#0A1830"/><rect x="260" y="78" width="13" height="13" fill="#0A1830"/><rect x="273" y="78" width="13" height="13" fill="#0A1830"/><rect x="0" y="91" width="13" height="13" fill="#0A1830"/><rect x="39" y="91" width="13" height="13" fill="#0A1830"/><rect x="65" y="91" width="13" height="13" fill="#0A1830"/><rect x="78" y="91" width="13" height="13" fill="#0A1830"/><rect x="104" y="91" width="13" height="13" fill="#0A1830"/><rect x="117" y="91" width="13" height="13" fill="#0A1830"/><rect x="130" y="91" width="13" height="13" fill="#0A1830"/><rect x="143" y="91" width="13" height="13" fill="#0A1830"/><rect x="182" y="91" width="13" height="13" fill="#0A1830"/><rect x="260" y="91" width="13" height="13" fill="#0A1830"/><rect x="286" y="91" width="13" height="13" fill="#0A1830"/><rect x="325" y="91" width="13" height="13" fill="#0A1830"/><rect x="0" y="0" width="520" height="104" fill="url(#fade)"/></svg>
